<?xml version="1.0" standalone="no"?>
<!DOCTYPE svg PUBLIC "-//W3C//DTD SVG 20010904//EN"
 "http://www.w3.org/TR/2001/REC-SVG-20010904/DTD/svg10.dtd">
<svg version="1.0" xmlns="http://www.w3.org/2000/svg"
 width="538.000000pt" height="734.000000pt" viewBox="0 0 538.000000 734.000000"
 preserveAspectRatio="xMidYMid meet">

<g transform="translate(0.000000,734.000000) scale(0.100000,-0.100000)"
fill="#000000" stroke="none">
<path d="M2488 7270 c-32 -5 -67 -14 -77 -20 -11 -5 -27 -10 -36 -10 -28 0
-235 -104 -243 -122 -2 -5 -8 -8 -13 -8 -9 0 -21 -8 -54 -37 -7 -7 -16 -13
-20 -13 -3 0 -16 -10 -29 -22 -41 -41 -76 -68 -86 -68 -6 0 -10 -3 -10 -7 0
-5 -17 -26 -36 -48 -103 -114 -144 -163 -144 -171 0 -3 -7 -12 -15 -20 -23
-23 -145 -210 -145 -222 0 -6 -3 -12 -7 -14 -10 -4 -37 -48 -66 -108 -12 -25
-25 -46 -29 -48 -5 -2 -8 -12 -8 -23 0 -10 -4 -19 -10 -19 -5 0 -10 -7 -10
-16 0 -8 -11 -35 -25 -60 -14 -25 -25 -51 -25 -59 0 -8 -4 -15 -10 -15 -5 0
-10 -8 -10 -18 0 -10 -4 -22 -9 -27 -4 -6 -16 -35 -27 -65 -10 -30 -22 -59
-26 -64 -4 -6 -8 -18 -8 -28 0 -10 -4 -26 -10 -36 -23 -42 -65 -253 -76 -387
-3 -33 -10 -64 -15 -69 -5 -6 -9 -23 -9 -39 0 -29 -24 -119 -41 -149 -5 -10
-9 -25 -9 -33 0 -8 -4 -15 -10 -15 -5 0 -10 -6 -10 -14 0 -27 -72 -141 -112
-178 -44 -42 -83 -49 -135 -23 -36 18 -93 79 -93 99 0 8 -4 18 -10 21 -6 3
-10 15 -10 26 0 10 -3 20 -7 20 -5 1 -17 3 -28 4 -12 1 -31 7 -43 14 -21 11
-22 11 -15 -36 3 -27 10 -49 15 -51 4 -2 8 -12 8 -23 0 -10 5 -19 10 -19 6 0
10 -5 10 -11 0 -6 9 -22 20 -36 11 -15 18 -34 15 -44 -3 -9 2 -33 12 -54 17
-36 17 -37 -6 -54 -22 -17 -23 -22 -19 -107 5 -82 22 -144 41 -144 4 0 7 -5 7
-11 0 -6 6 -16 13 -23 6 -7 26 -30 42 -51 17 -21 35 -43 40 -49 6 -6 21 -26
34 -44 12 -17 28 -32 36 -32 7 0 15 -5 17 -12 5 -15 153 -14 172 1 8 7 22 2
46 -19 57 -49 127 -80 179 -80 26 0 51 -4 56 -8 6 -5 30 -15 54 -22 24 -8 46
-21 49 -29 7 -19 -16 -153 -28 -165 -6 -6 -10 -23 -10 -38 0 -15 -4 -28 -10
-28 -5 0 -10 -6 -10 -14 0 -17 -52 -120 -62 -124 -5 -2 -8 -9 -8 -16 0 -7 -16
-30 -35 -50 -19 -21 -35 -40 -35 -42 0 -10 -167 -164 -178 -164 -4 0 -25 -16
-47 -35 -22 -19 -43 -35 -48 -35 -4 0 -20 -12 -36 -28 -16 -15 -78 -52 -137
-82 -60 -30 -110 -58 -112 -62 -2 -5 -9 -8 -15 -8 -7 0 -41 -14 -77 -31 -36
-17 -90 -43 -120 -57 -30 -15 -81 -41 -113 -59 -33 -18 -65 -33 -73 -33 -8 0
-14 -3 -14 -7 0 -5 -24 -21 -52 -37 -29 -17 -62 -39 -74 -50 -12 -12 -30 -28
-40 -37 -58 -50 -100 -140 -107 -229 -10 -119 11 -385 42 -550 6 -30 15 -190
21 -355 6 -165 15 -319 20 -343 6 -23 10 -67 10 -97 0 -29 5 -57 10 -60 6 -3
10 -19 10 -34 0 -25 18 -92 39 -146 5 -11 13 -31 18 -45 9 -23 62 -130 130
-260 15 -30 31 -56 36 -58 4 -2 7 -8 7 -13 0 -34 140 -209 167 -209 7 0 13 -4
13 -9 0 -5 20 -17 45 -28 25 -10 45 -21 45 -25 0 -5 6 -8 13 -8 23 0 51 -63
59 -130 3 -36 10 -109 14 -163 4 -54 11 -100 16 -103 4 -3 8 -15 8 -26 0 -12
8 -45 17 -75 l17 -53 2203 0 c1756 0 2203 3 2203 13 0 6 -5 50 -11 97 -5 47
-15 132 -20 190 -23 249 -27 289 -37 360 -6 41 -20 121 -31 177 -12 55 -21
113 -21 126 0 14 -4 29 -10 32 -5 3 -10 24 -10 45 0 21 -4 41 -9 44 -4 3 -11
27 -15 53 -10 82 -31 181 -39 189 -4 4 -7 20 -7 35 0 15 -4 31 -10 34 -5 3
-10 16 -10 27 0 25 -48 168 -61 183 -5 5 -9 18 -9 28 0 23 50 117 62 117 4 0
8 9 8 20 0 11 5 20 10 20 6 0 10 8 10 18 0 10 4 22 9 27 20 22 54 223 54 320
0 73 -19 229 -38 310 -9 39 -19 82 -22 97 -3 16 -9 28 -14 28 -5 0 -9 13 -9
29 0 17 -3 32 -8 35 -4 2 -16 34 -27 70 -11 36 -23 66 -27 66 -5 0 -8 11 -8
25 0 14 -4 25 -10 25 -5 0 -10 9 -10 20 0 11 -4 20 -10 20 -5 0 -10 7 -10 15
0 14 -70 156 -82 165 -5 4 -15 79 -35 268 -3 28 -9 52 -14 52 -5 0 -9 14 -9
30 0 17 -4 30 -8 30 -4 0 -13 15 -20 34 -20 54 -91 119 -151 139 -58 19 -184
23 -225 7 -14 -5 -34 -27 -46 -50 -11 -22 -25 -40 -30 -40 -6 0 -33 11 -62 25
-28 14 -60 25 -70 25 -10 0 -18 3 -18 8 0 4 -39 16 -87 25 -49 10 -104 22
-124 28 -20 5 -61 9 -92 9 -31 0 -59 5 -62 10 -3 5 -33 10 -65 10 -32 0 -62 5
-65 10 -3 6 -15 10 -26 10 -57 0 -127 65 -181 168 -33 61 -35 82 -9 82 23 0
38 37 22 53 -6 6 -11 42 -11 79 0 78 5 81 72 48 23 -11 61 -20 85 -20 36 0 43
-3 43 -20 0 -11 5 -20 10 -20 6 0 10 -5 10 -10 0 -17 43 -57 69 -65 l24 -7
-26 26 c-43 43 -48 116 -8 116 9 0 22 5 28 11 7 7 29 12 50 13 33 1 38 4 41
26 2 14 8 35 14 48 13 24 16 24 119 0 99 -24 260 50 308 141 10 18 9 22 -5 28
-10 4 -19 2 -22 -5 -4 -13 -162 -17 -162 -4 0 4 -14 15 -30 24 -34 20 -42 58
-11 58 10 0 24 7 31 15 7 8 9 15 4 15 -13 0 -34 50 -34 82 0 15 5 28 10 28 6
0 10 25 10 55 0 48 3 55 19 55 11 0 21 -3 23 -7 9 -21 83 -43 136 -42 31 1 46
4 32 6 -14 3 -29 9 -34 14 -6 5 -18 9 -28 9 -10 0 -18 5 -18 10 0 6 -7 10 -15
10 -32 0 -115 105 -115 145 0 8 -4 15 -9 15 -18 0 -23 95 -30 610 -5 380 -10
531 -19 547 -7 12 -12 42 -12 67 0 25 -4 48 -10 51 -5 3 -10 23 -10 44 0 20
-4 41 -8 47 -5 5 -17 43 -27 84 -10 41 -22 79 -26 85 -5 5 -9 16 -9 25 0 9
-16 49 -35 89 -19 39 -35 76 -35 81 0 6 -4 10 -10 10 -5 0 -10 9 -10 20 0 11
-4 20 -10 20 -5 0 -10 7 -10 15 0 8 -4 15 -8 15 -5 0 -17 18 -27 40 -10 22
-22 40 -27 40 -4 0 -8 6 -8 14 0 8 -3 16 -7 18 -5 2 -21 21 -38 43 -47 64 -57
74 -117 134 -78 78 -111 105 -147 127 -17 10 -31 22 -31 26 0 4 -9 8 -20 8
-11 0 -20 5 -20 10 0 6 -7 10 -15 10 -8 0 -15 5 -15 10 0 6 -8 10 -18 10 -10
0 -27 7 -38 15 -10 8 -27 15 -36 15 -10 0 -18 5 -18 10 0 6 -7 10 -15 10 -8 0
-23 4 -33 9 -9 5 -49 16 -89 25 -85 19 -496 30 -585 16z"/>
</g>
</svg>
