<?xml version="1.0" standalone="no"?>
<!DOCTYPE svg PUBLIC "-//W3C//DTD SVG 20010904//EN"
 "http://www.w3.org/TR/2001/REC-SVG-20010904/DTD/svg10.dtd">
<svg version="1.0" xmlns="http://www.w3.org/2000/svg"
 width="641.000000pt" height="471.000000pt" viewBox="0 0 641.000000 471.000000"
 preserveAspectRatio="xMidYMid meet">

<g transform="translate(0.000000,471.000000) scale(0.100000,-0.100000)"
fill="#000000" stroke="none">
<path d="M3810 4172 c0 -5 20 -28 45 -51 39 -36 42 -41 22 -41 -12 0 -39 4
-59 9 -39 9 -47 4 -26 -17 13 -13 11 -14 -62 -32 -191 -49 -297 -133 -351
-281 -15 -41 -36 -72 -78 -112 -63 -61 -103 -133 -120 -215 -11 -53 -5 -146
29 -482 15 -148 14 -170 -10 -170 -11 0 -27 -11 -36 -25 -23 -34 -13 -133 26
-285 48 -183 76 -247 119 -274 34 -22 39 -31 65 -127 35 -128 76 -234 124
-319 41 -72 41 -76 28 -292 -4 -70 -13 -134 -19 -143 -7 -8 -43 -28 -82 -44
l-69 -28 -12 -89 c-14 -107 -21 -136 -47 -193 -19 -41 -27 -47 -146 -104 -229
-109 -374 -177 -376 -177 -10 0 -38 105 -44 163 -7 78 -3 73 -96 114 -58 26
-65 48 -65 206 l0 138 49 107 c27 59 64 156 82 215 28 93 37 111 61 123 34 18
38 26 77 144 39 120 61 226 61 294 0 54 -12 76 -42 76 -24 0 -24 31 3 285 36
344 15 449 -109 543 -17 12 -33 36 -37 52 -14 65 -205 205 -340 250 -91 30
-224 50 -340 50 -88 0 -162 12 -217 35 -30 12 -20 -12 20 -51 l37 -37 -40 7
c-22 4 -49 10 -60 13 -16 4 -18 3 -7 -8 17 -18 15 -29 -5 -29 -36 0 -183 -58
-222 -87 -57 -42 -97 -96 -122 -163 -15 -41 -33 -67 -64 -94 -28 -23 -56 -60
-77 -103 -33 -67 -33 -69 -31 -202 1 -73 6 -170 12 -215 5 -44 13 -118 16
-163 6 -77 5 -83 -12 -83 -50 0 -56 -68 -19 -230 39 -172 62 -230 107 -270 34
-31 43 -48 63 -125 30 -112 57 -182 103 -265 32 -57 36 -73 35 -130 -2 -84
-12 -230 -18 -252 -3 -10 -30 -26 -64 -39 -33 -12 -64 -27 -68 -33 -5 -6 -12
-43 -16 -82 -6 -73 -26 -142 -52 -181 -16 -25 -61 -48 -599 -298 -542 -252
-557 -259 -618 -298 -31 -20 -57 -41 -57 -47 0 -7 1039 -10 3175 -10 l3175 0
0 98 c0 97 0 99 -32 131 -27 28 -137 86 -318 168 -30 14 -120 56 -200 93 -80
37 -239 111 -355 165 -115 53 -253 117 -305 142 -52 25 -127 61 -167 79 -59
27 -76 41 -92 71 -31 62 -53 143 -60 222 l-6 75 -70 28 c-38 16 -77 35 -85 44
-12 12 -16 51 -18 192 l-3 177 47 95 c26 52 68 163 94 245 44 139 50 151 78
164 36 17 49 40 90 171 41 129 61 219 69 305 5 65 4 74 -16 94 -11 11 -28 21
-36 21 -21 0 -20 80 6 308 28 238 29 367 5 447 -28 93 -62 149 -108 175 -27
15 -45 35 -54 59 -27 67 -36 79 -103 133 -201 164 -345 213 -676 227 -159 7
-189 12 -267 46 -10 4 -18 3 -18 -3z"/>
</g>
</svg>
